<!-- <svg xmlns="http://www.w3.org/2000/svg" viewBox="0 0 24 24" width="24" height="24" color="#ffffff" fill="none">
    <path d="M2.5 12C2.5 7.52166 2.5 5.28249 3.89124 3.89124C5.28249 2.5 7.52166 2.5 12 2.5C16.4783 2.5 18.7175 2.5 20.1088 3.89124C21.5 5.28249 21.5 7.52166 21.5 12C21.5 16.4783 21.5 18.7175 20.1088 20.1088C18.7175 21.5 16.4783 21.5 12 21.5C7.52166 21.5 5.28249 21.5 3.89124 20.1088C2.5 18.7175 2.5 16.4783 2.5 12Z" stroke="currentColor" stroke-width="1.5" />
    <path d="M13 14.5C13 15.8807 11.8807 17 10.5 17C9.11929 17 8 15.8807 8 14.5C8 13.1193 9.11929 12 10.5 12C11.8807 12 13 13.1193 13 14.5ZM13 14.5V7C13.3333 7.5 13.6 9.6 16 10" stroke="currentColor" stroke-width="1.5" stroke-linecap="round" stroke-linejoin="round" />
</svg> -->
<svg xmlns="http://www.w3.org/2000/svg" viewBox="0 0 24 24" width="24" height="24" color="#ffffff" fill="none">
    <circle cx="6.5" cy="18.5" r="3.5" stroke="currentColor" stroke-width="1.5" />
    <circle cx="18" cy="16" r="3" stroke="currentColor" stroke-width="1.5" />
    <path d="M10 18.5L10 7C10 6.07655 10 5.61483 10.2635 5.32794C10.5269 5.04106 11.0175 4.9992 11.9986 4.91549C16.022 4.57222 18.909 3.26005 20.3553 2.40978C20.6508 2.236 20.7986 2.14912 20.8993 2.20672C21 2.26432 21 2.4315 21 2.76587V16" stroke="currentColor" stroke-width="1.5" stroke-linecap="round" stroke-linejoin="round" />
    <path d="M10 10C15.8667 10 19.7778 7.66667 21 7" stroke="currentColor" stroke-width="1.5" stroke-linecap="round" stroke-linejoin="round" />
</svg>